<?xml version="1.0" encoding="UTF-8"?>
<svg width="116px" height="114px" viewBox="0 0 116 114" version="1.1" xmlns="http://www.w3.org/2000/svg" xmlns:xlink="http://www.w3.org/1999/xlink" stroke-width="1">
    <title>SDG inside</title>
    <defs>
        <path d="M6.38830574,44.9697919 C8.19608287,62.4980737 22.6859371,76.061422 40.2933609,76.061422 C59.123275,76.061422 74.3880015,60.5494661 74.3880015,41.4145804 C74.3880015,22.3754978 59.2756665,6.92338595 40.2995599,6.76800129 L40.2933609,6.76800129 L39.0868847,6.52048823 C37.9744263,6.04226045 37.1938716,4.92280848 37.1938716,3.61831228 C37.1938716,1.92220475 38.5129626,0.539491271 40.2871619,0.468623268 L40.2995599,0.468623268 L44.4133571,0.68017738 C64.7338672,2.77944511 80.5869801,20.215861 80.5869801,41.4145804 C80.5869801,64.0285601 62.5469192,82.3608 40.2933609,82.3608 C18.0400609,82.3608 9.91079219e-14,64.0285601 9.91079219e-14,41.4145804 L0.243568201,40.188564 C0.698418256,39.0958843 1.74294615,38.3184361 3.09329032,38.2648914 L3.10568828,38.2648914 C4.87988761,38.3357594 6.1989786,39.7187353 6.1989786,41.4145804 L6.38830574,44.9697919 Z" id="path-1"></path>
    </defs>
    <g id="Resonance" stroke="none" stroke-width="1" fill="none" fill-rule="evenodd">
        <g id="2d.-opening" transform="translate(-363.000000, -98.000000)">
            <g id="SDG-inside" transform="translate(363.069997, 98.858398)">
                <g id="circle-" transform="translate(57.500000, 56.500000) rotate(95.000000) translate(-57.500000, -56.500000) translate(6.000000, 4.000000)">
                    <g id="Group-4" transform="translate(51.500000, 52.500000) rotate(18.000000) translate(-51.500000, -52.500000) translate(11.000000, 11.000000)">
                        <mask id="mask-2" fill="white">
                            <use xlink:href="#path-1"></use>
                        </mask>
                        <use id="Clip-3" fill="#D8D8D8" xlink:href="#path-1"></use>
                        <path d="M40.2933609,41.4145804 L22.6482266,-12.3784333 C28.1934713,-14.2611599 34.1274435,-15.2798218 40.2933609,-15.2798218 C71.0852374,-15.2798218 96.0844266,10.1239949 96.0844266,41.4145804 C96.0844266,72.7051659 71.0852374,98.109245 40.2933609,98.109245 C28.5047116,98.109245 66.0700843,87.2686745 57.0596106,80.9133895 L40.2933609,88.0302402 L57.0596106,80.9133895 C56.1848775,80.9133895 34.8725541,85.6645892 33.8625724,82.9592566 C32.8973972,80.3739429 30.8009225,76.595927 30.8009225,75.7464616 C30.8009225,74.0080957 17.6730201,64.419157 19.3836799,64.419157 L40.2933609,41.4145804 Z" id="Fill-2" fill="#FE8708" mask="url(#mask-2)"></path>
                    </g>
                </g>
                <circle id="Oval" fill="#FE8708" cx="58.4300026" cy="55.6416016" r="36.5"></circle>
                <text id="x" font-family="Helvetica-Light, Helvetica" font-size="36" font-weight="300" letter-spacing="-0.377142906" fill="#FFFFFF">
                    <tspan x="46.9300026" y="70.1416016">x</tspan>
                </text>
            </g>
        </g>
    </g>
</svg>